<?xml version="1.0" encoding="UTF-8"?>
<svg preserveAspectRatio="xMidYMid meet" xmlns="http://www.w3.org/2000/svg" xmlns:xlink="http://www.w3.org/1999/xlink" viewBox="60.91 203.74 721.07 187.79" version="1.2">
<g id="surface1">
<path style=" stroke:none;fill-rule:nonzero;fill:currentColor;fill-opacity:1;" d="M 91.398438 316.566406 C 88.511719 310.511719 86.507812 303.671875 85.628906 295.835938 C 85.191406 291.941406 85.226562 288.363281 85.226562 284.457031 L 85.226562 228.804688 C 94.398438 229.707031 102.347656 232.453125 109.148438 236.332031 C 115.671875 240.058594 121.265625 244.636719 125.636719 250.550781 L 174.941406 319.742188 L 197.328125 319.742188 L 147.804688 250.277344 C 144.105469 244.261719 139.804688 239.261719 135.578125 234.453125 C 119.753906 216.433594 89.484375 209.316406 66.566406 209.996094 L 66.566406 288.351562 C 66.566406 290.671875 66.625 292.644531 66.867188 294.960938 C 68.695312 312.578125 74.445312 326.355469 82.503906 337.335938 C 95.488281 355.03125 112.785156 365.507812 132.429688 370.601562 L 110.792969 340.699219 C 102.757812 334.171875 95.972656 326.167969 91.398438 316.566406 "/>
<path style=" stroke:none;fill-rule:nonzero;fill:currentColor;fill-opacity:1;" d="M 139.777344 293.054688 L 120.296875 319.742188 L 142.714844 319.742188 L 151.238281 308.042969 Z M 139.777344 293.054688 "/>
<path style=" stroke:none;fill-rule:nonzero;fill:currentColor;fill-opacity:1;" d="M 181.976562 234.453125 C 177.753906 239.261719 173.453125 244.257812 169.753906 250.277344 L 166.488281 254.855469 L 177.675781 270.546875 L 191.921875 250.550781 C 196.292969 244.636719 201.882812 240.058594 208.410156 236.332031 C 215.210938 232.453125 223.160156 229.707031 232.332031 228.804688 L 232.332031 284.457031 C 232.332031 288.363281 232.367188 291.941406 231.929688 295.839844 C 231.046875 303.671875 229.042969 310.511719 226.160156 316.566406 C 221.929688 325.445312 215.804688 332.960938 208.550781 339.203125 L 188.941406 365.332031 L 185.125 370.605469 C 204.773438 365.507812 222.066406 355.03125 235.054688 337.335938 C 243.109375 326.355469 248.859375 312.582031 250.691406 294.960938 C 250.933594 292.644531 250.992188 290.671875 250.992188 288.351562 L 250.992188 209.996094 C 228.074219 209.316406 197.804688 216.433594 181.976562 234.453125 "/>
<path style=" stroke:none;fill-rule:nonzero;fill:currentColor;fill-opacity:1;" d="M 174.941406 332.246094 L 158.777344 353.816406 L 142.566406 332.246094 L 119.429688 332.246094 L 158.777344 384.601562 L 198.078125 332.246094 Z M 174.941406 332.246094 "/>
<path style=" stroke:none;fill-rule:nonzero;fill:currentColor;fill-opacity:1;" d="M 329.449219 318.589844 L 348.613281 254.996094 L 368.011719 254.996094 L 338.566406 339.558594 L 320.386719 339.558594 L 291.058594 254.996094 L 310.398438 254.996094 Z M 329.449219 318.589844 "/>
<path style=" stroke:none;fill-rule:nonzero;fill:currentColor;fill-opacity:1;" d="M 397.46875 339.558594 L 380.046875 339.558594 L 380.046875 254.996094 L 397.46875 254.996094 Z M 397.46875 339.558594 "/>
<path style=" stroke:none;fill-rule:nonzero;fill:currentColor;fill-opacity:1;" d="M 447.835938 318.589844 L 467.003906 254.996094 L 486.402344 254.996094 L 456.953125 339.558594 L 438.777344 339.558594 L 409.445312 254.996094 L 428.789062 254.996094 Z M 447.835938 318.589844 "/>
<path style=" stroke:none;fill-rule:nonzero;fill:currentColor;fill-opacity:1;" d="M 548.207031 302.910156 L 514.753906 302.910156 L 514.753906 325.5625 L 554.015625 325.5625 L 554.015625 339.558594 L 497.332031 339.558594 L 497.332031 254.996094 L 553.902344 254.996094 L 553.902344 269.109375 L 514.753906 269.109375 L 514.753906 289.261719 L 548.207031 289.261719 Z M 548.207031 302.910156 "/>
<path style=" stroke:none;fill-rule:nonzero;fill:currentColor;fill-opacity:1;" d="M 584.636719 325.5625 L 621.632812 325.5625 L 621.632812 339.558594 L 567.210938 339.558594 L 567.210938 254.996094 L 584.636719 254.996094 Z M 584.636719 325.5625 "/>
<path style=" stroke:none;fill-rule:nonzero;fill:currentColor;fill-opacity:1;" d="M 652.019531 325.5625 L 689.015625 325.5625 L 689.015625 339.558594 L 634.59375 339.558594 L 634.59375 254.996094 L 652.019531 254.996094 Z M 652.019531 325.5625 "/>
<path style=" stroke:none;fill-rule:nonzero;fill:currentColor;fill-opacity:1;" d="M 724.976562 308.019531 L 746.117188 308.019531 L 735.488281 276.367188 Z M 750.824219 322.132812 L 720.273438 322.132812 L 714.464844 339.558594 L 695.9375 339.558594 L 727.417969 254.996094 L 743.5625 254.996094 L 775.214844 339.558594 L 756.6875 339.558594 Z M 750.824219 322.132812 "/>
</g>
</svg>
