<svg xmlns="http://www.w3.org/2000/svg" viewBox="0 0 560 140" role="img" aria-label="Podpis Gabriela Kořínková">
  <!-- PLACEHOLDER PODPIS (Gabriela Kořínková) — nahradit naskenovaným podpisem, stejný viewBox -->
  <g fill="none" stroke="#d4b97a" stroke-width="2.4" stroke-linecap="round" stroke-linejoin="round">
    <!-- G -->
    <path d="M74 44c-2-11-14-16-25-11-14 6-22 25-19 42 2 14 13 22 25 18 10-3 16-13 17-25-6 0-11 0-16 1"/>
    <!-- a -->
    <path d="M96 78c-7-5-17-1-19 8-2 8 3 14 10 12 6-2 10-9 11-17-1 9 0 15 4 17 3 1 7-1 9-5"/>
    <!-- b -->
    <path d="M116 92c3-20 7-42 9-56-3 19-6 39-7 51 2-9 8-15 14-15 5 0 8 5 6 12-2 7-8 11-14 9"/>
    <!-- r -->
    <path d="M146 90c1-8 3-14 4-18 0 4 0 8-1 12 2-8 6-13 11-13"/>
    <!-- i -->
    <path d="M168 90c1-6 2-12 3-17M172 62l1 1"/>
    <!-- e -->
    <path d="M180 80c6 1 12-1 15-6 2-4-1-8-5-6-5 2-8 10-5 16 3 5 10 5 15 1"/>
    <!-- l -->
    <path d="M210 90c3-19 7-40 9-54-3 20-6 40-6 50 0 4 2 6 5 4"/>
    <!-- a -->
    <path d="M240 78c-7-5-17-1-19 8-2 8 3 14 10 12 6-2 10-9 11-17-1 9 0 15 4 17 4 2 9-1 12-7"/>
    <!-- spojka -->
    <path d="M264 84c10-3 18-10 22-20"/>
    <!-- K -->
    <path d="M296 96c4-19 9-40 12-54M330 42c-11 11-21 20-28 24 6 5 12 17 15 30"/>
    <!-- háček nad o -->
    <path d="M344 60l4-6 4 6"/>
    <!-- o -->
    <path d="M352 78c-1-6-7-8-11-4-5 5-5 15 0 19 5 3 11 0 12-7"/>
    <!-- ř háček -->
    <path d="M370 58l4-6 5 6"/>
    <!-- r -->
    <path d="M366 90c1-8 3-14 4-18 0 4 0 8-1 12 2-8 6-13 11-13"/>
    <!-- í -->
    <path d="M388 90c1-6 2-12 3-17M394 60l5-7"/>
    <!-- n -->
    <path d="M402 90c1-9 3-15 4-19 0 5 0 10-1 15 2-9 6-14 11-14 4 0 5 4 4 9-1 4-2 8-3 11"/>
    <!-- k -->
    <path d="M430 92c3-19 7-40 9-54-3 20-6 40-6 50M448 68c-8 6-12 10-15 12 4 3 7 8 8 14"/>
    <!-- o -->
    <path d="M466 78c-1-6-7-8-11-4-5 5-5 15 0 19 5 3 11 0 12-7"/>
    <!-- v -->
    <path d="M478 70c1 8 3 14 6 20 4-7 7-14 9-21"/>
    <!-- a + koncovka -->
    <path d="M512 78c-7-5-17-1-19 8-2 8 3 14 10 12 6-2 10-9 11-17-1 9 0 15 4 17 4 2 10-2 12-9"/>
  </g>
  <path d="M60 116c70 13 190 12 290-3 30-5 55-13 72-22-12 13-33 22-55 27" fill="none" stroke="#d4b97a" stroke-width="1.8" stroke-linecap="round"/>
</svg>
