<?xml version="1.0" encoding="UTF-8"?>
<svg preserveAspectRatio="xMidYMid meet" xmlns="http://www.w3.org/2000/svg" xmlns:xlink="http://www.w3.org/1999/xlink" viewBox="231.69 112.86 379.52 370.56" version="1.2">
<g id="surface1">
<path style=" stroke:none;fill-rule:nonzero;fill:rgb(0%,0%,0%);fill-opacity:1;" d="M 324.25 271.117188 C 320.109375 262.429688 317.238281 252.625 315.972656 241.386719 C 315.34375 235.796875 315.398438 230.667969 315.398438 225.066406 L 315.398438 145.246094 C 328.550781 146.535156 339.953125 150.480469 349.707031 156.042969 C 359.066406 161.382812 367.085938 167.953125 373.351562 176.4375 L 444.070312 275.675781 L 476.179688 275.675781 L 405.148438 176.039062 C 399.84375 167.410156 393.675781 160.242188 387.617188 153.34375 C 364.914062 127.503906 321.503906 117.292969 288.628906 118.269531 L 288.628906 230.652344 C 288.628906 233.976562 288.71875 236.808594 289.0625 240.128906 C 291.6875 265.398438 299.9375 285.160156 311.492188 300.90625 C 330.117188 326.285156 354.921875 341.308594 383.101562 348.621094 L 352.066406 305.734375 C 340.542969 296.367188 330.808594 284.886719 324.25 271.117188 "/>
<path style=" stroke:none;fill-rule:nonzero;fill:rgb(0%,0%,0%);fill-opacity:1;" d="M 393.636719 237.398438 L 365.691406 275.675781 L 397.847656 275.675781 L 410.078125 258.894531 Z M 393.636719 237.398438 "/>
<path style=" stroke:none;fill-rule:nonzero;fill:rgb(0%,0%,0%);fill-opacity:1;" d="M 454.164062 153.34375 C 448.105469 160.242188 441.933594 167.410156 436.628906 176.039062 L 431.945312 182.609375 L 447.992188 205.113281 L 468.425781 176.4375 C 474.695312 167.953125 482.714844 161.382812 492.074219 156.042969 C 501.824219 150.480469 513.230469 146.539062 526.382812 145.246094 L 526.382812 225.066406 C 526.382812 230.664062 526.4375 235.796875 525.808594 241.386719 C 524.542969 252.625 521.667969 262.429688 517.53125 271.117188 C 511.464844 283.851562 502.679688 294.628906 492.277344 303.585938 L 464.152344 341.058594 L 458.679688 348.621094 C 486.855469 341.308594 511.664062 326.285156 530.289062 300.90625 C 541.84375 285.160156 550.089844 265.402344 552.714844 240.128906 C 553.0625 236.808594 553.148438 233.976562 553.148438 230.652344 L 553.148438 118.269531 C 520.277344 117.292969 476.863281 127.503906 454.164062 153.34375 "/>
<path style=" stroke:none;fill-rule:nonzero;fill:rgb(0%,0%,0%);fill-opacity:1;" d="M 444.074219 293.605469 L 420.890625 324.546875 L 397.636719 293.605469 L 364.453125 293.605469 L 420.890625 368.699219 L 477.253906 293.605469 Z M 444.074219 293.605469 "/>
<path style=" stroke:none;fill-rule:nonzero;fill:rgb(0%,0%,0%);fill-opacity:1;" d="M 266.957031 460.503906 L 281.441406 412.441406 L 296.101562 412.441406 L 273.847656 476.347656 L 260.109375 476.347656 L 237.945312 412.441406 L 252.558594 412.441406 Z M 266.957031 460.503906 "/>
<path style=" stroke:none;fill-rule:nonzero;fill:rgb(0%,0%,0%);fill-opacity:1;" d="M 318.363281 476.347656 L 305.195312 476.347656 L 305.195312 412.441406 L 318.363281 412.441406 Z M 318.363281 476.347656 "/>
<path style=" stroke:none;fill-rule:nonzero;fill:rgb(0%,0%,0%);fill-opacity:1;" d="M 356.425781 460.503906 L 370.910156 412.441406 L 385.570312 412.441406 L 363.316406 476.347656 L 349.578125 476.347656 L 327.414062 412.441406 L 342.03125 412.441406 Z M 356.425781 460.503906 "/>
<path style=" stroke:none;fill-rule:nonzero;fill:rgb(0%,0%,0%);fill-opacity:1;" d="M 432.28125 448.652344 L 407 448.652344 L 407 465.769531 L 436.667969 465.769531 L 436.667969 476.347656 L 393.832031 476.347656 L 393.832031 412.441406 L 436.582031 412.441406 L 436.582031 423.109375 L 407 423.109375 L 407 438.339844 L 432.28125 438.339844 Z M 432.28125 448.652344 "/>
<path style=" stroke:none;fill-rule:nonzero;fill:rgb(0%,0%,0%);fill-opacity:1;" d="M 459.808594 465.769531 L 487.769531 465.769531 L 487.769531 476.347656 L 446.640625 476.347656 L 446.640625 412.441406 L 459.808594 412.441406 Z M 459.808594 465.769531 "/>
<path style=" stroke:none;fill-rule:nonzero;fill:rgb(0%,0%,0%);fill-opacity:1;" d="M 510.734375 465.769531 L 538.691406 465.769531 L 538.691406 476.347656 L 497.566406 476.347656 L 497.566406 412.441406 L 510.734375 412.441406 Z M 510.734375 465.769531 "/>
<path style=" stroke:none;fill-rule:nonzero;fill:rgb(0%,0%,0%);fill-opacity:1;" d="M 565.871094 452.515625 L 581.847656 452.515625 L 573.8125 428.59375 Z M 585.402344 463.179688 L 562.3125 463.179688 L 557.925781 476.347656 L 543.921875 476.347656 L 567.714844 412.441406 L 579.914062 412.441406 L 603.835938 476.347656 L 589.835938 476.347656 Z M 585.402344 463.179688 "/>
</g>
</svg>
